<?xml version="1.0" standalone="no"?>
<svg viewBox="0 0 200 200" xmlns="http://www.w3.org/2000/svg">
  <path fill="#8A3FFC" d="M33.3,-60.3C43.4,-52,51.8,-43.4,62.2,-33.3C72.7,-23.2,85.2,-11.6,88,1.6C90.8,14.8,83.9,29.6,72,37.2C60.1,44.8,43.2,45.2,30.4,45.3C17.5,45.4,8.8,45.3,-2.2,49C-13.1,52.8,-26.2,60.4,-34.3,57.6C-42.5,54.8,-45.7,41.5,-52.1,30.2C-58.6,18.8,-68.2,9.4,-73.5,-3.1C-78.8,-15.5,-79.8,-31.1,-70.3,-37.2C-60.9,-43.2,-41,-39.8,-27.5,-46.2C-14,-52.6,-7,-68.7,2.3,-72.8C11.7,-76.8,23.3,-68.7,33.3,-60.3Z" transform="translate(100 100)" />
</svg>
