<?xml version="1.0" standalone="no"?>
<svg viewBox="0 0 200 200" xmlns="http://www.w3.org/2000/svg">
  <path fill="#8A3FFC" d="M39,-70.7C48.2,-62.3,51.7,-47.1,57.9,-34.2C64,-21.2,72.8,-10.6,77.4,2.6C82,15.9,82.3,31.8,72.6,38.5C62.8,45.2,43,42.6,29.2,47.3C15.4,52,7.7,64.1,-3.2,69.7C-14.1,75.2,-28.3,74.3,-40.9,68.9C-53.5,63.5,-64.5,53.6,-71.1,41.3C-77.6,29.1,-79.7,14.5,-73.1,3.8C-66.6,-7,-51.4,-13.9,-44.6,-25.8C-37.9,-37.7,-39.5,-54.5,-33.5,-64.8C-27.5,-75,-13.7,-78.7,0.6,-79.8C14.9,-80.8,29.8,-79.1,39,-70.7Z" transform="translate(100 100)" />
</svg>
