<?xml version="1.0" standalone="no"?>
<svg viewBox="0 0 200 200" xmlns="http://www.w3.org/2000/svg">
  <path fill="#8A3FFC" d="M30.4,-49.9C43.5,-45,61.3,-45.3,64.4,-37.9C67.6,-30.4,56,-15.2,49.1,-4C42.2,7.2,39.9,14.5,38.7,25.3C37.6,36.1,37.5,50.5,31.3,57.5C25,64.4,12.5,64,0.6,63C-11.4,62.1,-22.8,60.6,-30,54.2C-37.2,47.8,-40.2,36.4,-41,26.5C-41.8,16.6,-40.4,8.3,-43.1,-1.6C-45.8,-11.5,-52.7,-22.9,-50.8,-30.9C-48.9,-38.9,-38.2,-43.3,-28.3,-50.1C-18.4,-56.9,-9.2,-66.1,-0.3,-65.6C8.6,-65.1,17.2,-54.9,30.4,-49.9Z" transform="translate(100 100)" />
</svg>
